<svg width="32" height="32" viewBox="0 0 32 32" fill="none" xmlns="http://www.w3.org/2000/svg">
  <rect width="32" height="32" rx="8" fill="url(#paint0_linear_1_2)"/>
  <path d="M16 8C11.5817 8 8 11.5817 8 16C8 20.4183 11.5817 24 16 24C20.4183 24 24 20.4183 24 16C24 11.5817 20.4183 8 16 8Z" stroke="white" stroke-width="2"/>
  <path d="M16 12C13.7909 12 12 13.7909 12 16C12 18.2091 13.7909 20 16 20C18.2091 20 20 18.2091 20 16C20 13.7909 18.2091 12 16 12Z" fill="white"/>
  <path d="M22 16L26 16" stroke="white" stroke-width="2" stroke-linecap="round"/>
  <path d="M6 16L10 16" stroke="white" stroke-width="2" stroke-linecap="round"/>
  <path d="M16 6L16 10" stroke="white" stroke-width="2" stroke-linecap="round"/>
  <path d="M16 22L16 26" stroke="white" stroke-width="2" stroke-linecap="round"/>
  <defs>
    <linearGradient id="paint0_linear_1_2" x1="0" y1="0" x2="32" y2="32" gradientUnits="userSpaceOnUse">
      <stop stop-color="#6366F1"/>
      <stop offset="1" stop-color="#8B5CF6"/>
    </linearGradient>
  </defs>
</svg>